<svg width="16" height="14" viewBox="0 0 16 14" fill="none" xmlns="http://www.w3.org/2000/svg">
<path fill-rule="evenodd" clip-rule="evenodd" d="M7.70679 13.707C7.51926 13.8945 7.26495 13.9998 6.99979 13.9998C6.73462 13.9998 6.48031 13.8945 6.29279 13.707L0.292786 7.707C0.105315 7.51947 0 7.26516 0 7C0 6.73483 0.105315 6.48052 0.292786 6.293L6.29279 0.292995C6.48139 0.110837 6.73399 0.0100427 6.99619 0.0123211C7.25838 0.0145995 7.5092 0.119769 7.6946 0.305177C7.88001 0.490585 7.98518 0.741397 7.98746 1.00359C7.98974 1.26579 7.88894 1.51839 7.70679 1.70699L3.41379 6H14.9998C15.265 6 15.5194 6.10535 15.7069 6.29289C15.8944 6.48042 15.9998 6.73478 15.9998 7C15.9998 7.26521 15.8944 7.51957 15.7069 7.7071C15.5194 7.89464 15.265 8 14.9998 8H3.41379L7.70679 12.293C7.89426 12.4805 7.99957 12.7348 7.99957 13C7.99957 13.2652 7.89426 13.5195 7.70679 13.707Z" fill="#1A1A1A"/>
</svg>
